<svg width="47" height="48" viewBox="0 0 47 48" fill="none" xmlns="http://www.w3.org/2000/svg">
<path d="M16.0636 31.8869L17.4469 33.2702C20.9597 36.7831 26.7195 36.7831 30.2323 33.2702L33.0409 30.4616L41.0643 38.5018L38.2557 41.3104C30.3246 49.2332 17.3379 49.2332 9.40674 41.302L0 31.8869C4.43508 27.4518 11.6285 27.4518 16.0636 31.8869Z" fill="#009FE3"/>
<path d="M17.6074 28.0234L23.844 21.7869L30.0806 28.0234L27.0749 31.0291C25.2905 32.8135 22.3975 32.8135 20.6131 31.0291L17.6074 28.0234Z" fill="#F9B233"/>
<path d="M43.1753 20.0571L23.8672 0.749023L15.8354 8.7808L14.9551 9.66949C10.6374 13.9872 10.6374 20.9794 14.9551 25.2971L15.1731 25.5151L23.8672 16.821L43.1669 36.1207C47.602 31.6856 47.602 24.5006 43.1669 20.0655L43.1753 20.0571Z" fill="#008D36"/>
</svg>
